# xmcd
#
# Track frame offsets:
#	150
#	13542
#	28262
#	42827
#	52307
#	67365
#	81325
#	96160
#	108555
#	121487
#	136730
#	152190
#	165202
#	178472
#
# Disc length: 2551 seconds
#
# Revision: 0
# Processed by: cddbd v1.5.2PL0 Copyright (c) Steve Scherf et al.
# Submitted via: EZCDAudioConverter 3.1.5.1
#
DISCID=c809f50e
DTITLE=Στέλιος Καζαντζίδης-Μαρινέλλα - Οι μεγάλες ερμηνείες
DYEAR=1900
DGENRE=Laika
TTITLE0=Στέλιος Καζαντζίδης and Μαρινέλλα - Στα βράχια της Πειραϊκής
TTITLE1=Μαρινέλλα - Κοίτα με στα μάτια 
TTITLE2=Στέλιος Καζαντζίδης and Μαρινέλλα - Απόψε σ' έχω στην αγκαλιά μου 
TTITLE3=Μαρινέλλα -  Το μάνταλο
TTITLE4=Στέλιος Καζαντζίδης and Μαρινέλλα - Άσε με να ζήσω μοναχός
TTITLE5=Μαρινέλλα - Τι να φταίει
TTITLE6=Στέλιος Καζαντζίδης and Μαρινέλλα - Θα κλάψεις μια μέρα
TTITLE7=Μαρινέλλα - Πυρετός Τραγούδι
TTITLE8=Στέλιος Καζαντζίδης and Μαρινέλλα - Μη μου λέτε γι' αυτή
TTITLE9=Μαρινέλλα - Σταλιά, σταλιά 
TTITLE10=Στέλιος Καζαντζίδης - Μ' άναψες φωτιά
TTITLE11=Μαρινέλλα - Συννεφιές
TTITLE12=Στέλιος Καζαντζίδης and Μαρινέλλα - Αύριο σε χάνω
TTITLE13=Μαρινέλλα - Δυο νύχτες 
EXTD=
EXTT0=
EXTT1=
EXTT2=
EXTT3=
EXTT4=
EXTT5=
EXTT6=
EXTT7=
EXTT8=
EXTT9=
EXTT10=
EXTT11=
EXTT12=
EXTT13=
PLAYORDER=
